<svg width="76" height="26" viewBox="0 0 76 26" fill="none" xmlns="http://www.w3.org/2000/svg">
<g clip-path="url(#clip0_255_7568)">
<path d="M46.6385 0.195557H68.8235C70.5313 0.302157 72.2002 1.00655 73.431 2.20239C74.8786 3.5784 75.6955 5.57486 75.6608 7.56932C75.6444 10.0288 75.6836 12.488 75.6423 14.9474C75.5033 18.3219 72.6937 21.3364 69.3274 21.6803C67.4823 21.8216 65.6271 21.719 63.7781 21.7419C63.3251 21.7745 62.799 21.6352 62.4202 21.9547C60.825 23.0993 59.234 24.2481 57.6327 25.3826H57.6186C56.0601 24.2831 54.5121 23.1689 52.9679 22.0512C52.7633 21.9196 52.5606 21.7377 52.3024 21.7518C50.3981 21.7213 48.4898 21.7845 46.5852 21.7255C43.8741 21.6206 41.3327 19.8207 40.3154 17.3085C39.4532 15.3386 39.8093 13.1454 39.7336 11.063C39.8012 9.20559 39.541 7.3054 40.0119 5.48682C40.7882 2.53812 43.5916 0.299818 46.6385 0.195557ZM46.2621 6.39C45.1684 7.24791 44.6935 8.67132 44.681 10.0246C44.6461 12.1482 44.673 14.2716 44.6668 16.3973C45.3016 16.4054 45.9341 16.4033 46.5693 16.3929C46.5877 14.0649 46.5364 11.7345 46.5936 9.40612C46.7003 8.13233 47.978 7.18638 49.2269 7.43627C50.3941 7.5531 51.2295 8.69554 51.1703 9.83389C51.1782 12.0149 51.1763 14.1958 51.1682 16.3743C51.8011 16.4155 52.4377 16.4072 53.0724 16.387C53.0847 14.1326 53.0518 11.8777 53.0868 9.62337C53.0705 8.31883 54.3236 7.21932 55.6176 7.42409C56.7395 7.47515 57.6266 8.50933 57.6428 9.60685C57.6614 11.8677 57.6428 14.1305 57.6511 16.3929C58.2776 16.4033 58.9063 16.4033 59.5349 16.3974C59.5308 14.2821 59.5474 12.1648 59.5269 10.0475C59.5228 8.93773 59.222 7.79309 58.4969 6.9307C56.9119 4.99367 53.5699 5.14524 52.1162 7.17235C50.7974 5.36814 48.0088 5.03002 46.2621 6.39ZM63.5505 5.88199C61.4045 6.68061 59.9281 8.95561 60.0634 11.243C60.0203 13.6718 61.8511 15.9487 64.206 16.4936C65.7356 16.8046 67.4451 16.5508 68.6574 15.5104C69.8372 14.5809 70.4679 13.1494 70.7564 11.7081C70.1011 11.6177 69.45 11.4581 68.7844 11.4541C68.639 12.394 68.2703 13.3523 67.5291 13.983C66.3805 15.0233 64.4493 15.0212 63.3046 13.9766C61.5538 12.5022 61.5947 9.4164 63.4195 8.01784C64.6705 6.95915 66.696 7.17625 67.7646 8.39664C66.0508 9.37153 64.3288 10.3358 62.6046 11.2901C62.8646 11.7753 63.1328 12.2588 63.4114 12.7338C65.7392 11.4499 68.0759 10.1803 70.3713 8.84331C69.9883 8.19002 69.6055 7.52011 69.0425 7.00222C67.646 5.58524 65.3918 5.15533 63.5505 5.88199Z" fill="#2A2B2D"/>
<path d="M27.218 1.09235C27.8528 1.09045 28.4876 1.09045 29.1245 1.09045C29.1245 6.27935 29.1265 11.4663 29.1245 16.655C28.4876 16.655 27.8528 16.655 27.218 16.655C27.2159 11.4664 27.2159 6.2794 27.218 1.09235Z" fill="#2A2B2D"/>
<path d="M30.4043 1.09045C31.0453 1.09045 31.6842 1.09045 32.3251 1.09235C32.3251 4.01464 32.3229 6.93874 32.3251 9.86088C33.1606 9.85659 34.1435 9.93464 34.7722 9.26498C35.6486 8.31284 36.1707 7.10058 36.9059 6.04608C37.6327 5.91483 38.4129 6.03166 39.1602 5.99283C38.1589 7.43227 37.514 9.19317 36.0846 10.2806C37.1455 10.467 38.1528 11.1896 38.4049 12.2812C38.7467 13.7104 38.5172 15.1991 38.5827 16.6531C37.9419 16.655 37.3031 16.655 36.6621 16.6531C36.6336 15.5064 36.7318 14.3536 36.5925 13.2109C36.4983 12.496 35.9332 11.8755 35.2022 11.7915C34.2479 11.6832 33.2834 11.763 32.3251 11.7405C32.3229 13.3786 32.3251 15.0167 32.323 16.653C31.6842 16.6549 31.0432 16.6549 30.4043 16.6549C30.4043 11.4664 30.4043 6.2794 30.4043 1.09045Z" fill="#2A2B2D"/>
<path d="M46.2621 6.38997C48.0087 5.02994 50.7974 5.36806 52.1165 7.17227C53.5702 5.14487 56.9122 4.99325 58.4968 6.93062C59.2219 7.79253 59.523 8.93731 59.5271 10.0471C59.5473 12.1645 59.531 14.2819 59.5351 16.3972C58.9062 16.4033 58.2776 16.4033 57.6514 16.3928C57.6429 14.1301 57.6613 11.8675 57.6429 9.60663C57.6265 8.50925 56.7398 7.47492 55.618 7.42376C54.3237 7.21899 53.0708 8.31861 53.0873 9.62314C53.0521 11.8776 53.0847 14.1325 53.0729 16.3866C52.4378 16.4071 51.8011 16.4154 51.1682 16.3741C51.1766 14.1954 51.1787 12.0146 51.1703 9.83381C51.2298 8.69517 50.3944 7.55263 49.227 7.4358C47.9779 7.18625 46.7003 8.13206 46.5939 9.406C46.5364 11.7341 46.5877 14.0645 46.5693 16.3925C45.9342 16.4029 45.3017 16.4052 44.6672 16.397C44.6731 14.2714 44.6461 12.148 44.6813 10.0244C44.6932 8.6713 45.1684 7.24793 46.2621 6.38997Z" fill="white"/>
<path d="M63.5506 5.88204C65.3915 5.15538 67.6461 5.58529 69.0426 7.00226C69.6057 7.52016 69.9885 8.19001 70.3715 8.84335C68.0761 10.1804 65.7393 11.4499 63.4116 12.7338C63.133 12.2588 62.8646 11.7754 62.6047 11.2902C64.3289 10.3358 66.051 9.37163 67.7648 8.39669C66.6961 7.17629 64.6708 6.9592 63.4197 8.01789C61.5951 9.4165 61.5543 12.5023 63.3048 13.9767C64.4494 15.0212 66.3807 15.0233 67.5293 13.983C68.2705 13.3523 68.6391 12.3941 68.7846 11.4541C69.4501 11.4582 70.1013 11.6177 70.7565 11.7081C70.4681 13.1495 69.8374 14.5809 68.6575 15.5105C67.4453 16.5508 65.7355 16.8046 64.2062 16.4936C61.8513 15.9488 60.0205 13.6719 60.0635 11.2431C59.9282 8.95565 61.4047 6.68071 63.5506 5.88204Z" fill="white"/>
<path d="M19.025 6.06245C20.5772 5.57291 22.3608 5.7368 23.7287 6.64777C25.1396 7.54705 26.0386 9.1668 26.0855 10.8357C26.1716 12.7748 26.1123 14.714 26.1285 16.6531C25.4857 16.655 24.8406 16.655 24.1976 16.6531C24.1936 14.8491 24.2017 13.0451 24.1955 11.2389C24.1915 10.2807 23.8925 9.29552 23.2188 8.59332C22.0188 7.26847 19.7009 7.26637 18.466 8.54411C16.8237 10.213 17.1391 13.467 19.2503 14.6097C20.6428 15.3712 22.3854 14.9761 23.5854 14.0301C23.5812 14.7244 23.5833 15.4184 23.5812 16.1107C22.3649 16.7657 20.9151 17.0013 19.5615 16.6962C17.954 16.3274 16.574 15.1381 15.9351 13.6246C15.4293 12.4307 15.3719 11.0751 15.6504 9.81785C16.0355 8.10168 17.3439 6.60495 19.025 6.06245Z" fill="#2A2B2D"/>
<path d="M0.0980712 5.99285C0.728707 5.99285 1.35934 5.99285 1.99217 5.99285C1.99422 8.09171 1.99217 10.1907 1.99217 12.2894C1.98398 12.9387 2.0863 13.6285 2.50208 14.1509C3.30065 15.2404 5.11694 15.2727 5.98938 14.2593C6.42557 13.7841 6.60369 13.1271 6.59955 12.492C6.60155 10.3255 6.59955 8.16099 6.59955 5.9945C7.23019 5.99255 7.86102 5.99255 8.4937 5.99255C8.49574 8.08533 8.4937 10.1802 8.49165 12.2727C8.48551 12.9445 8.59202 13.6592 9.03635 14.1916C9.85134 15.2481 11.6533 15.2608 12.4989 14.2349C12.9761 13.7003 13.099 12.9591 13.0888 12.2648C13.0867 10.1738 13.0867 8.08343 13.0888 5.9926C13.7195 5.9926 14.3501 5.9926 14.9829 5.9926C14.9788 8.06692 14.9889 10.139 14.9788 12.2136C14.9725 13.5076 14.6184 14.8796 13.6437 15.7888C11.9646 17.4064 8.90733 17.1441 7.54141 15.24C6.24121 16.9845 3.55653 17.3777 1.80572 16.1019C0.728658 15.33 0.212564 14.0154 0.0980225 12.7315V5.99285H0.0980712Z" fill="#2A2B2D"/>
</g>
<defs>
<clipPath id="clip0_255_7568">
<rect width="75.76" height="25.5781" fill="white"/>
</clipPath>
</defs>
</svg>
