<svg width="116" height="48" viewBox="0 0 116 48" fill="none" xmlns="http://www.w3.org/2000/svg">
<path d="M0 24C0 12.6863 0 7.02944 3.51472 3.51472C7.02944 0 12.6863 0 24 0H92C103.314 0 108.971 0 112.485 3.51472C116 7.02944 116 12.6863 116 24V24C116 35.3137 116 40.9706 112.485 44.4853C108.971 48 103.314 48 92 48H24C12.6863 48 7.02944 48 3.51472 44.4853C0 40.9706 0 35.3137 0 24V24Z" fill="url(#paint0_linear_336_5309)"/>
<path d="M0 24C0 12.6863 0 7.02944 3.51472 3.51472C7.02944 0 12.6863 0 24 0H92C103.314 0 108.971 0 112.485 3.51472C116 7.02944 116 12.6863 116 24V24C116 35.3137 116 40.9706 112.485 44.4853C108.971 48 103.314 48 92 48H24C12.6863 48 7.02944 48 3.51472 44.4853C0 40.9706 0 35.3137 0 24V24Z" fill="url(#paint1_linear_336_5309)"/>
<path d="M23.51 31V25.236C23.51 23.234 23.488 21.716 23.334 20.748L27.404 31H30L34.092 20.726C33.938 21.87 33.938 22.816 33.938 26.05V31H36.666V14.918H33.894L28.702 27.722L23.51 14.918H20.782V31H23.51ZM39.1914 25.544C39.1914 28.932 41.6334 31.264 44.9994 31.264C48.3654 31.264 50.8074 28.932 50.8074 25.544C50.8074 22.156 48.3654 19.824 44.9994 19.824C41.6334 19.824 39.1914 22.156 39.1914 25.544ZM41.8754 25.544C41.8754 23.564 43.1514 22.222 44.9994 22.222C46.8474 22.222 48.1234 23.564 48.1234 25.544C48.1234 27.524 46.8474 28.866 44.9994 28.866C43.1514 28.866 41.8754 27.524 41.8754 25.544ZM52.0988 27.7C52.0988 29.834 53.8148 31.286 56.5208 31.286C59.2048 31.286 61.0748 29.922 61.0748 27.722C61.0748 26.05 60.1508 25.214 58.3248 24.796L56.3668 24.334C55.4428 24.114 54.9588 23.718 54.9588 23.102C54.9588 22.288 55.5748 21.804 56.6308 21.804C57.6648 21.804 58.2808 22.398 58.3028 23.322H60.8548C60.8328 21.21 59.1828 19.802 56.7408 19.802C54.2328 19.802 52.4288 21.078 52.4288 23.212C52.4288 24.95 53.3748 25.874 55.3328 26.314L57.2908 26.776C58.2588 26.996 58.5448 27.392 58.5448 27.942C58.5448 28.734 57.8628 29.24 56.6088 29.24C55.3768 29.24 54.6728 28.646 54.6508 27.7H52.0988ZM64.9004 31L66.1984 27.282H72.2044L73.5024 31H76.4724L70.6644 14.918H67.7824L61.9744 31H64.9004ZM68.8604 19.714C69.0144 19.274 69.1464 18.79 69.2124 18.482C69.2564 18.812 69.4104 19.296 69.5424 19.714L71.3904 24.906H67.0344L68.8604 19.714ZM81.305 14.918H78.489V31H81.305V14.918ZM83.8359 25.544C83.8359 28.998 85.9919 31.286 89.2919 31.286C92.1299 31.286 94.2419 29.548 94.5719 27.018H91.8659C91.5799 28.206 90.6339 28.866 89.2919 28.866C87.5759 28.866 86.5199 27.59 86.5199 25.544C86.5199 23.498 87.6639 22.2 89.3799 22.2C90.6559 22.2 91.5579 22.838 91.8659 24.07H94.5499C94.2639 21.452 92.2399 19.802 89.2699 19.802C86.0579 19.802 83.8359 22.178 83.8359 25.544Z" fill="white"/>
<defs>
<linearGradient id="paint0_linear_336_5309" x1="58" y1="0" x2="63.372" y2="38.0197" gradientUnits="userSpaceOnUse">
<stop stop-color="#F7C96B"/>
<stop offset="1" stop-color="#FCA880"/>
</linearGradient>
<linearGradient id="paint1_linear_336_5309" x1="-15.8182" y1="32.2388" x2="-0.938859" y2="-28.5997" gradientUnits="userSpaceOnUse">
<stop stop-color="#E55D87"/>
<stop offset="1" stop-color="#5FC3E4"/>
</linearGradient>
</defs>
</svg>
