<svg width="102" height="23" viewBox="0 0 102 23" fill="none" xmlns="http://www.w3.org/2000/svg">
<g clip-path="url(#clip0_255_7592)">
<path d="M33.2437 16.3911C32.4027 15.9294 31.7596 15.2698 31.2979 14.4123C30.8527 13.5713 30.6218 12.5819 30.6218 11.4606C30.6218 10.3393 30.8527 9.36636 31.2979 8.52537C31.7431 7.68438 32.4027 7.02478 33.2437 6.56306C34.0847 6.10134 35.0741 5.87048 36.2119 5.87048C36.921 5.87048 37.6136 5.98591 38.2897 6.20028C38.9658 6.41465 39.5099 6.71147 39.9222 7.07425L39.0482 9.06954C38.1413 8.44292 37.2178 8.12961 36.2779 8.12961C35.3874 8.12961 34.7113 8.40994 34.2331 8.9706C33.7549 9.53126 33.5241 10.3558 33.5241 11.4771C33.5241 12.5819 33.7549 13.4229 34.2331 13.9835C34.7113 14.5442 35.3874 14.8245 36.2779 14.8245C37.2178 14.8245 38.1413 14.5112 39.0482 13.8846L39.9387 15.8964C39.5099 16.2592 38.9658 16.556 38.3062 16.7704C37.6466 16.9847 36.954 17.1002 36.2284 17.1002C35.0741 17.0837 34.0847 16.8528 33.2437 16.3911Z" fill="#2A2B2D"/>
<path d="M42.4451 16.5725C41.802 16.2427 41.3238 15.781 40.9775 15.1873C40.6312 14.5937 40.4498 13.8846 40.4498 13.0766C40.4498 12.2686 40.6312 11.5595 40.9775 10.9659C41.3238 10.3723 41.8185 9.91054 42.4451 9.59723C43.0717 9.28392 43.8138 9.11902 44.6713 9.11902C45.5122 9.11902 46.2543 9.28392 46.8974 9.59723C47.524 9.91054 48.0187 10.3723 48.365 10.9659C48.7113 11.5595 48.8927 12.2686 48.8927 13.0766C48.8927 13.8846 48.7113 14.5937 48.365 15.1873C48.0187 15.781 47.524 16.2592 46.8974 16.5725C46.2708 16.9023 45.5287 17.0672 44.6713 17.0672C43.8138 17.0672 43.0717 16.9023 42.4451 16.5725ZM46.1224 13.0766C46.1224 11.7904 45.6277 11.1473 44.6548 11.1473C43.6654 11.1473 43.1872 11.7904 43.1872 13.0766C43.1872 14.3628 43.6819 15.0059 44.6548 15.0059C45.6277 15.0059 46.1224 14.3628 46.1224 13.0766Z" fill="#2A2B2D"/>
<path d="M55.8845 11.3782L54.3839 11.5266C53.7902 11.5925 53.3615 11.7574 53.1307 12.0048C52.8998 12.2686 52.7679 12.6314 52.7679 13.1096V16.9518H49.9976V9.30044H52.6195V10.6196C52.8009 10.1579 53.0812 9.79514 53.4934 9.54779C53.8892 9.30044 54.3839 9.16852 54.961 9.13554L55.7196 9.06958L55.8845 11.3782Z" fill="#2A2B2D"/>
<path d="M62.8103 9.94353C63.3874 10.5042 63.6678 11.3617 63.6678 12.5325V16.9353H61.0788V15.8634C60.9304 16.2427 60.6831 16.523 60.3533 16.7374C60.007 16.9518 59.5947 17.0507 59.133 17.0507C58.6053 17.0507 58.1271 16.9518 57.6984 16.7374C57.2696 16.523 56.9398 16.2262 56.6925 15.8469C56.4451 15.4677 56.3297 15.0389 56.3297 14.5607C56.3297 14.0165 56.4781 13.5713 56.7585 13.2415C57.0388 12.9117 57.5005 12.6809 58.1106 12.5325C58.7372 12.384 59.5782 12.3181 60.6336 12.3181H61.0458V12.1367C61.0458 11.7574 60.9634 11.4936 60.782 11.3452C60.6006 11.1968 60.2873 11.1143 59.8421 11.1143C59.4958 11.1143 59.0835 11.1803 58.6218 11.3287C58.1601 11.4606 57.7314 11.642 57.3191 11.8564L56.6265 10.0425C57.0718 9.77863 57.6324 9.54777 58.292 9.36638C58.9681 9.18499 59.5782 9.10254 60.1389 9.10254C61.3427 9.11903 62.2331 9.39936 62.8103 9.94353ZM60.6831 14.8246C60.9139 14.5607 61.0458 14.2144 61.0458 13.8022V13.6208H60.7985C60.1389 13.6208 59.6607 13.6867 59.3804 13.8022C59.1 13.9176 58.9681 14.1155 58.9681 14.3958C58.9681 14.6267 59.0506 14.8246 59.199 14.9895C59.3474 15.1379 59.5453 15.2203 59.7761 15.2203C60.1389 15.2203 60.4522 15.0884 60.6831 14.8246Z" fill="#2A2B2D"/>
<path d="M64.9539 16.9518V6.00244H67.7242V16.9518H64.9539Z" fill="#2A2B2D"/>
<path d="M70.8573 16.5725C70.2142 16.2427 69.736 15.781 69.3897 15.1873C69.0434 14.5937 68.8621 13.8846 68.8621 13.0766C68.8621 12.2686 69.0434 11.5595 69.3897 10.9659C69.736 10.3723 70.2307 9.91054 70.8573 9.59723C71.484 9.28392 72.226 9.11902 73.0835 9.11902C73.9245 9.11902 74.6665 9.28392 75.3096 9.59723C75.9363 9.91054 76.431 10.3723 76.7772 10.9659C77.1235 11.5595 77.3049 12.2686 77.3049 13.0766C77.3049 13.8846 77.1235 14.5937 76.7772 15.1873C76.431 15.781 75.9363 16.2592 75.3096 16.5725C74.683 16.9023 73.941 17.0672 73.0835 17.0672C72.226 17.0672 71.484 16.9023 70.8573 16.5725ZM74.5346 13.0766C74.5346 11.7904 74.0399 11.1473 73.067 11.1473C72.0776 11.1473 71.5994 11.7904 71.5994 13.0766C71.5994 14.3628 72.0941 15.0059 73.067 15.0059C74.0564 15.0059 74.5346 14.3628 74.5346 13.0766Z" fill="#2A2B2D"/>
<path d="M86.7702 9.30043V16.0118C86.7702 17.2816 86.3909 18.238 85.6489 18.8811C84.8903 19.5407 83.7855 19.854 82.3179 19.854C81.6253 19.854 80.9492 19.7716 80.3061 19.6067C79.6465 19.4418 79.0858 19.2274 78.6076 18.9306L79.3002 17.0507C79.7784 17.2981 80.2731 17.4959 80.7843 17.6279C81.2955 17.7598 81.7737 17.8257 82.2354 17.8257C82.8456 17.8257 83.3073 17.6938 83.5876 17.43C83.8844 17.1661 84.0328 16.7539 84.0328 16.1767V15.5831C83.802 15.9294 83.4722 16.1932 83.0599 16.3911C82.6312 16.589 82.1695 16.6879 81.6748 16.6879C81.0152 16.6879 80.4215 16.5395 79.9103 16.2262C79.3991 15.9129 78.9869 15.4677 78.7066 14.8905C78.4097 14.3134 78.2778 13.6538 78.2778 12.8952C78.2778 12.1367 78.4262 11.4771 78.7066 10.9C79.0034 10.3228 79.3991 9.87758 79.9103 9.56427C80.4215 9.25096 81.0152 9.08606 81.6748 9.08606C82.186 9.08606 82.6477 9.185 83.0764 9.39937C83.5052 9.61374 83.835 9.89407 84.0493 10.2568V9.28394H86.7702V9.30043ZM83.6536 14.1979C83.9174 13.8846 84.0493 13.4724 84.0493 12.9282C84.0493 12.3841 83.9174 11.9553 83.6536 11.642C83.3897 11.3287 83.0105 11.1803 82.5158 11.1803C82.0375 11.1803 81.6748 11.3287 81.3944 11.642C81.1306 11.9553 80.9987 12.3841 80.9987 12.9447C80.9987 13.4889 81.1306 13.9011 81.4109 14.2144C81.6913 14.5277 82.054 14.6762 82.5158 14.6762C83.0105 14.6597 83.3897 14.5113 83.6536 14.1979Z" fill="#2A2B2D"/>
<path d="M88.0068 5.49121H90.8926V7.99768H88.0068V5.49121ZM88.0728 16.9517V9.30039H90.8431V16.9352H88.0728V16.9517Z" fill="#2A2B2D"/>
<path d="M97.8515 12.9942L101.1 16.9353H97.868L96.2684 14.9235L94.6689 16.9353H91.4534L94.7019 12.9942L91.6348 9.30042H94.8833L96.2684 11.0978L97.6701 9.30042H100.919L97.8515 12.9942Z" fill="#2A2B2D"/>
<path d="M11.477 21.7997C17.1781 21.7997 21.7997 17.1781 21.7997 11.477C21.7997 5.77594 17.1781 1.1543 11.477 1.1543C5.77593 1.1543 1.1543 5.77594 1.1543 11.477C1.1543 17.1781 5.77593 21.7997 11.477 21.7997Z" fill="#2A2B2D"/>
<path d="M11.477 22.9375C5.14486 22.9375 0 17.7927 0 11.477C0 5.14487 5.14486 0 11.477 0C17.8091 0 22.954 5.14487 22.954 11.477C22.9375 17.7927 17.7927 22.9375 11.477 22.9375ZM11.477 2.27561C6.41459 2.27561 2.2921 6.39811 2.2921 11.4605C2.2921 16.5229 6.41459 20.6454 11.477 20.6454C16.5394 20.6454 20.6619 16.5229 20.6619 11.4605C20.6619 6.39811 16.5394 2.27561 11.477 2.27561Z" fill="#C4C4C4"/>
</g>
<defs>
<clipPath id="clip0_255_7592">
<rect width="101.1" height="22.9375" fill="white"/>
</clipPath>
</defs>
</svg>
