<svg width="77" height="31" viewBox="0 0 77 31" fill="none" xmlns="http://www.w3.org/2000/svg">
<path d="M0.372437 22.0761L14.7114 0.877081C14.8354 0.638272 15.082 0.488403 15.3511 0.488403C15.6202 0.488403 15.8669 0.638272 15.9909 0.877081L21.3011 8.78842L23.0672 11.4135H20.0036C19.3148 11.4474 18.6737 11.7756 18.2435 12.3146L11.9 22.0761H0.372437Z" fill="#2A2B2D"/>
<path d="M14.5252 29.2306L20.1718 17.9553C20.2292 17.8298 20.3585 17.7531 20.4962 17.7631C20.6331 17.7565 20.7607 17.8321 20.8206 17.9553L26.4613 29.2306C26.5343 29.3183 26.5444 29.4424 26.4864 29.5408C26.4285 29.6391 26.3151 29.6905 26.2029 29.6691H24.7252C24.5737 29.6643 24.4264 29.6187 24.2987 29.537C24.171 29.4617 24.0702 29.3482 24.0104 29.2126L23.5178 28.2334C23.4452 28.1076 23.3418 28.0021 23.2174 27.9271C23.0949 27.844 22.9509 27.7982 22.8029 27.7949H18.1835C18.0339 27.7999 17.8885 27.8456 17.763 27.9271C17.6323 28.0004 17.529 28.1143 17.4686 28.2515L17.0001 29.2126C16.93 29.3451 16.8264 29.4569 16.6997 29.537C16.5765 29.6185 16.433 29.6643 16.2852 29.6691H14.8015C14.6901 29.6812 14.5813 29.6302 14.5192 29.537C14.4698 29.4403 14.472 29.3253 14.5252 29.2306ZM19.2888 25.8306H21.6916C21.8048 25.8444 21.9154 25.7902 21.974 25.6924C22.0285 25.5933 22.0285 25.4732 21.974 25.3741L20.7065 22.6949C20.6524 22.5627 20.5803 22.4967 20.4962 22.4967C20.4121 22.4967 20.34 22.5627 20.286 22.6949L19.0004 25.3741C18.946 25.4753 18.946 25.5972 19.0004 25.6984C19.0645 25.7927 19.1756 25.8436 19.2888 25.8306Z" fill="#2A2B2D"/>
<path d="M29.675 29.6691H28.3895C28.2538 29.6708 28.1234 29.6164 28.0291 29.5189C27.9346 29.4254 27.8826 29.2973 27.8849 29.1644V18.2676C27.8816 18.1328 27.9337 18.0025 28.029 17.9071C28.1244 17.8118 28.2547 17.7597 28.3895 17.763H33.3033C33.8735 17.7552 34.4401 17.8551 34.9733 18.0573C35.4503 18.2582 35.8861 18.5453 36.2588 18.9043C36.4438 19.085 36.6071 19.2866 36.7454 19.505C36.8903 19.7237 37.0111 19.9573 37.1058 20.2019C37.3036 20.7321 37.4034 21.2939 37.4001 21.8598C37.4246 22.6964 37.1919 23.5204 36.7334 24.2206C36.386 24.724 35.9224 25.1361 35.3818 25.422C35.2724 25.4778 35.1902 25.5752 35.1535 25.6924C35.1222 25.8115 35.1539 25.9384 35.2376 26.0287C35.6341 26.5694 36.0185 27.08 36.385 27.5606C36.7514 28.0411 37.1238 28.5577 37.5143 29.0984C37.595 29.1999 37.6218 29.3341 37.5864 29.4588C37.5521 29.5766 37.438 29.6527 37.3161 29.639H35.6761C35.5232 29.6345 35.3733 29.5955 35.2376 29.5249C35.0992 29.4593 34.9764 29.3651 34.8772 29.2485L34.3305 28.5037C34.1563 28.2634 33.9701 28.0171 33.7899 27.7648L32.7146 26.257C32.6238 26.13 32.5017 26.0286 32.3602 25.9627C32.2232 25.8899 32.0708 25.8508 31.9157 25.8485H30.6662C30.5318 25.8473 30.4023 25.8991 30.3058 25.9927C30.2098 26.0876 30.1576 26.2182 30.1616 26.3531V29.1344C30.1635 29.2661 30.114 29.3932 30.0234 29.4888C29.9415 29.5997 29.8128 29.6662 29.675 29.6691ZM30.6662 23.8602H33.3033C33.5092 23.8521 33.7123 23.8095 33.904 23.734C34.1292 23.6527 34.3342 23.5236 34.5047 23.3556C34.6796 23.1807 34.8238 22.9776 34.9312 22.7549C35.0498 22.4782 35.1052 22.1786 35.0934 21.8778C35.0899 21.676 35.0677 21.4749 35.0273 21.2771C35.0037 21.1588 34.9716 21.0424 34.9312 20.9287C34.8832 20.8146 34.8351 20.7065 34.7811 20.5983C34.6446 20.3718 34.4549 20.1821 34.2284 20.0457C33.9381 19.8805 33.6069 19.8013 33.2733 19.8174H30.6662C30.5318 19.8161 30.4023 19.868 30.3058 19.9616C30.2098 20.0565 30.1576 20.1871 30.1616 20.322V23.3916C30.1576 23.5266 30.2098 23.6571 30.3058 23.7521C30.4078 23.8327 30.5367 23.8713 30.6662 23.8602Z" fill="#2A2B2D"/>
<path d="M52.508 18.0213V29.1644C52.5104 29.2973 52.4583 29.4253 52.3639 29.5188C52.2769 29.6161 52.152 29.6709 52.0215 29.6691H50.7359C50.6018 29.672 50.4727 29.6174 50.3815 29.5188C50.2855 29.426 50.2313 29.298 50.2314 29.1644V24.1545C50.2314 24.0103 50.2013 23.9262 50.1473 23.9022C50.0932 23.8782 50.0091 23.9022 49.925 24.0404L46.8554 27.7287C46.7839 27.8344 46.6646 27.8977 46.537 27.8977C46.4094 27.8977 46.2901 27.8344 46.2186 27.7287L43.125 24.0284C43.0409 23.9202 42.9628 23.8782 42.9027 23.8962C42.8426 23.9142 42.8006 23.9983 42.8006 24.1425V29.1524C42.8029 29.2853 42.7508 29.4133 42.6564 29.5068C42.5634 29.6063 42.4321 29.661 42.296 29.657H41.0285C40.7512 29.6538 40.5271 29.4297 40.5239 29.1524V18.0213C40.5172 17.9622 40.5343 17.903 40.5716 17.8567C40.6088 17.8105 40.663 17.781 40.7221 17.775C40.8465 17.7548 40.9717 17.8058 41.0465 17.9071L46.1826 24.2686C46.2668 24.3603 46.3855 24.4125 46.51 24.4125C46.6344 24.4125 46.7532 24.3603 46.8373 24.2686L51.9914 17.9252C52.0654 17.8227 52.1913 17.7714 52.3158 17.793C52.4305 17.8056 52.5151 17.9061 52.508 18.0213Z" fill="#2A2B2D"/>
<path d="M57.9925 29.669H56.707C56.5741 29.6744 56.4459 29.6192 56.3586 29.5188C56.2657 29.4247 56.2157 29.2965 56.2204 29.1644V18.2856C56.2148 18.1515 56.2648 18.0211 56.3586 17.9252C56.448 17.8285 56.5753 17.7758 56.707 17.781H57.9925C58.1254 17.7786 58.2534 17.8307 58.3469 17.9252C58.4445 18.0195 58.4988 18.1499 58.4971 18.2856V29.1644C58.4972 29.298 58.443 29.426 58.3469 29.5188C58.2557 29.6174 58.1267 29.672 57.9925 29.669Z" fill="#2A2B2D"/>
<path d="M61.9211 27.6988L62.5999 26.6896C62.6684 26.5773 62.7825 26.5005 62.9123 26.4794C63.0427 26.4562 63.1769 26.4865 63.2847 26.5635C63.746 26.849 64.2233 27.1078 64.7144 27.3384C65.3365 27.6445 66.0215 27.8008 66.7148 27.7949C67.0469 27.8013 67.3778 27.7526 67.6939 27.6507C67.9515 27.5735 68.1935 27.4515 68.4088 27.2903C68.5897 27.1557 68.7393 26.9836 68.8473 26.7857C68.9432 26.6174 68.9929 26.4268 68.9915 26.2331C68.9907 26.0118 68.9096 25.7983 68.7632 25.6324C68.5919 25.4578 68.3878 25.319 68.1625 25.2239C68.0423 25.1698 67.9102 25.1218 67.772 25.0737L67.2975 24.9476C67.1353 24.9055 66.9731 24.8635 66.8049 24.8334L66.2763 24.7373L65.8858 24.6592L65.4473 24.5751C65.1138 24.5243 64.7859 24.4418 64.4681 24.3288C64.1233 24.2307 63.7908 24.0937 63.477 23.9203C63.1546 23.7679 62.8585 23.5652 62.5999 23.3196C62.3392 23.0597 62.1347 22.7489 61.9992 22.4065C61.838 22.0144 61.7602 21.593 61.7709 21.1691C61.7105 20.0225 62.2852 18.9355 63.2667 18.3397C63.721 18.0795 64.2137 17.893 64.7264 17.7871C65.24 17.6788 65.7634 17.6244 66.2883 17.6248C66.7346 17.623 67.1804 17.6552 67.6219 17.721C67.8201 17.7571 68.0063 17.7991 68.1865 17.8472L68.7151 17.9973C68.8833 18.0634 69.0515 18.1415 69.2197 18.2196L69.6883 18.4719L69.9946 18.6641C70.0968 18.7302 70.2049 18.7963 70.325 18.8624C70.4349 18.9388 70.5104 19.0552 70.5353 19.1867C70.5544 19.3188 70.5197 19.4529 70.4392 19.5592L69.7544 20.5383C69.5908 20.7689 69.2722 20.8251 69.0395 20.6645C68.662 20.4213 68.2592 20.2198 67.8381 20.0638C67.3176 19.852 66.7601 19.7459 66.1982 19.7514H65.8798C65.7657 19.7514 65.6515 19.7514 65.5314 19.7995C65.2843 19.8534 65.0444 19.9361 64.8165 20.0458C64.7129 20.0976 64.6126 20.1558 64.5162 20.22C64.4282 20.2782 64.3475 20.3467 64.2759 20.4242C64.1374 20.5935 64.063 20.8062 64.0657 21.0249C64.0597 21.2533 64.1541 21.4728 64.324 21.6256C64.5191 21.8018 64.7451 21.9403 64.9907 22.0341C65.1309 22.0902 65.2751 22.1382 65.4233 22.1783C65.5674 22.2263 65.7236 22.2684 65.8858 22.3104C66.048 22.3525 66.2102 22.3945 66.3664 22.4246C66.5226 22.4546 66.6787 22.4967 66.8289 22.5387L67.2014 22.6168C67.3418 22.6529 67.4842 22.681 67.6279 22.7009L68.0964 22.791C68.2609 22.8287 68.4233 22.8748 68.583 22.9292L68.8533 23.0073L69.1236 23.1094C69.2498 23.1634 69.3999 23.2295 69.5681 23.3196C69.7185 23.395 69.863 23.4813 70.0007 23.5779C70.0822 23.6312 70.1604 23.6894 70.2349 23.7521L70.4392 23.9384C70.7015 24.2086 70.9059 24.5295 71.0399 24.8815C71.211 25.3152 71.2928 25.779 71.2802 26.2451C71.2914 26.799 71.1806 27.3486 70.9558 27.855C70.7476 28.3018 70.4293 28.6883 70.0307 28.9783C69.6033 29.2975 69.1176 29.5301 68.601 29.6631C68.0005 29.8173 67.3828 29.894 66.7628 29.8914C66.2105 29.8967 65.6591 29.8464 65.1169 29.7412C64.6751 29.6686 64.2435 29.5436 63.8314 29.3688C63.6391 29.2907 63.4469 29.2066 63.2667 29.1165C63.0814 29.0259 62.9009 28.9256 62.7261 28.8161L62.4017 28.6119L62.0593 28.3776C61.9486 28.3075 61.8724 28.1942 61.849 28.0652C61.8277 27.9384 61.8533 27.8081 61.9211 27.6988Z" fill="#2A2B2D"/>
<path d="M73.4006 28.2695C73.4001 28.1256 73.4183 27.9822 73.4547 27.843C73.4894 27.7084 73.542 27.5791 73.6109 27.4585C73.6827 27.3411 73.7651 27.2305 73.8572 27.1281C73.9523 27.0326 74.0593 26.9499 74.1756 26.8818C74.2942 26.8101 74.4213 26.7536 74.554 26.7136C74.6891 26.6772 74.8286 26.659 74.9685 26.6596C75.1104 26.659 75.2518 26.6772 75.389 26.7136C75.5221 26.7524 75.6494 26.809 75.7674 26.8818C75.8866 26.9482 75.9959 27.0311 76.0918 27.1281C76.1857 27.229 76.2683 27.3397 76.3381 27.4585C76.4071 27.5791 76.4596 27.7084 76.4943 27.843C76.5357 27.9813 76.5559 28.1251 76.5544 28.2695C76.5516 28.476 76.5087 28.68 76.4282 28.8702C76.3491 29.0618 76.2351 29.237 76.0918 29.3868C75.9467 29.5317 75.7755 29.6479 75.5872 29.7292C75.3977 29.8117 75.1933 29.8546 74.9865 29.8554C74.8466 29.8559 74.7072 29.8377 74.572 29.8013C74.4405 29.7608 74.3136 29.7064 74.1936 29.6391C74.0849 29.5814 73.9823 29.513 73.8872 29.4348C73.7952 29.3325 73.7127 29.2219 73.6409 29.1045C73.573 28.9833 73.5206 28.8542 73.4848 28.72C73.4366 28.5743 73.4083 28.4227 73.4006 28.2695ZM73.7911 28.2695C73.7897 28.4398 73.8203 28.609 73.8812 28.7681C73.9392 28.9151 74.0249 29.0497 74.1335 29.1645C74.2324 29.2774 74.3529 29.3693 74.4879 29.4348C74.6342 29.4972 74.7915 29.5299 74.9505 29.531C75.1134 29.5299 75.2745 29.4972 75.425 29.4348C75.5676 29.3703 75.6962 29.2784 75.8035 29.1645C75.9121 29.0497 75.9978 28.9151 76.0558 28.7681C76.1167 28.609 76.1473 28.4398 76.1459 28.2695C76.1474 28.103 76.1168 27.9378 76.0558 27.7829C75.9492 27.4914 75.7339 27.2524 75.4551 27.1161C75.3059 27.049 75.1441 27.0142 74.9805 27.014C74.8207 27.0136 74.6628 27.0485 74.518 27.1161C74.3768 27.1773 74.2499 27.2674 74.1455 27.3804C74.0355 27.4965 73.9497 27.6333 73.8932 27.7829C73.8282 27.937 73.7935 28.1022 73.7911 28.2695ZM74.3918 27.4585H75.0887C75.1623 27.4572 75.2356 27.4694 75.3049 27.4946C75.3669 27.5178 75.4239 27.5524 75.4731 27.5967C75.5187 27.6425 75.5536 27.6979 75.5752 27.7589C75.6053 27.8248 75.6197 27.8967 75.6173 27.9691C75.6269 28.0248 75.6269 28.0817 75.6173 28.1373C75.6005 28.1813 75.5761 28.2219 75.5452 28.2575C75.5199 28.2902 75.4894 28.3186 75.4551 28.3416C75.4263 28.362 75.3935 28.3763 75.359 28.3836V28.4136L75.389 28.4617L75.6894 29.0624H75.2749L75.0045 28.4617H74.7943V29.0624H74.4159L74.3918 27.4585ZM74.9925 28.2094C75.0571 28.2117 75.1199 28.1879 75.1667 28.1433C75.2097 28.0959 75.2314 28.033 75.2268 27.9691C75.2324 27.9033 75.2107 27.8382 75.1667 27.7889C75.1202 27.7485 75.0602 27.7271 74.9985 27.7288H74.7883V28.2334L74.9925 28.2094Z" fill="#2A2B2D"/>
</svg>
