<svg width="65" height="18" viewBox="0 0 65 18" fill="none" xmlns="http://www.w3.org/2000/svg">
<path fill-rule="evenodd" clip-rule="evenodd" d="M3.61703 2.47499L5.97313 8.97113L8.44184 2.47499H11.9463L5.9537 17.5181H2.48757L4.26007 12.8568L0 2.47499H3.61703ZM40.6316 2.24464C43.7959 2.24464 46.1035 4.7002 46.1035 8.06116C46.1035 11.4221 43.7959 13.8782 40.6316 13.8782C39.4638 13.8782 38.4807 13.569 37.7302 12.9728L37.6816 12.9334L37.6399 12.8991V17.5147H34.2629V2.47499H37.2489V3.59931L37.2661 3.57988C38.0017 2.74078 39.1146 2.27665 40.4899 2.24636L40.5624 2.24521H40.6316V2.24464ZM18.0972 2.24464C21.5816 2.24464 24.0514 4.65218 24.0514 8.06116C24.0514 11.4558 21.5736 13.8782 18.0972 13.8782C14.6013 13.8782 12.1195 11.4593 12.1195 8.06116C12.1195 4.64876 14.5927 2.24464 18.0972 2.24464ZM29.6776 0V2.47499H32.4556V5.39182H29.6776V9.41812C29.6776 10.3189 30.1149 10.8145 30.9117 10.8448L30.9506 10.8454L30.99 10.846C31.5301 10.846 31.9394 10.7042 32.3058 10.3521L32.3401 10.3184L32.431 10.2252H32.4561V13.4427L32.3527 13.4924C31.7965 13.7582 31.4541 13.8782 30.5064 13.8782C27.8291 13.8782 26.359 12.4207 26.3018 9.69877L26.3007 9.61589V9.53301L26.3001 5.39182H25.078V2.47499H26.3921V0H29.677H29.6776ZM53.4827 2.24464C56.9671 2.24464 59.437 4.65218 59.437 8.06116C59.437 11.4558 56.9591 13.8782 53.4827 13.8782C49.9868 13.8782 47.505 11.4593 47.505 8.06116C47.505 4.64876 49.9788 2.24464 53.4827 2.24464ZM62.1898 10.1772C63.2118 10.1772 64.04 11.006 64.04 12.0274C64.04 13.0494 63.2112 13.8782 62.1898 13.8782C61.1678 13.8782 60.3395 13.0494 60.3395 12.0274C60.3395 11.0054 61.1683 10.1772 62.1898 10.1772ZM40.1257 5.27693C38.6042 5.27693 37.5707 6.40297 37.5707 8.06116C37.5707 9.71992 38.6042 10.846 40.1257 10.846C41.6668 10.846 42.7036 9.72335 42.7036 8.06116C42.7036 6.39954 41.6668 5.27693 40.1257 5.27693ZM18.0966 5.27693C16.5704 5.27693 15.5193 6.40869 15.5193 8.06116C15.5193 9.7142 16.5704 10.846 18.0972 10.846C19.6039 10.846 20.6522 9.71077 20.6522 8.06116C20.6522 6.41212 19.6039 5.27693 18.0972 5.27693H18.0966ZM53.4827 5.27693C51.9566 5.27693 50.9048 6.40869 50.9048 8.06116C50.9048 9.7142 51.9566 10.846 53.4827 10.846C54.9894 10.846 56.0377 9.71077 56.0377 8.06116C56.0377 6.41212 54.9894 5.27693 53.4827 5.27693Z" fill="#2A2B2D"/>
</svg>
