<svg width="106" height="21" viewBox="0 0 106 21" fill="none" xmlns="http://www.w3.org/2000/svg">
<g clip-path="url(#clip0_255_7542)">
<path d="M38.7099 11.4014C38.456 11.8728 38.1115 12.4531 37.5131 13.0696C36.6246 14.0125 34.4487 15.4631 35.6636 12.3443C36.8785 9.22546 37.2592 8.88096 37.223 7.48476C37.1867 6.08855 35.6092 5.94349 34.5212 6.30614C34.0497 6.46933 33.27 6.90452 32.5448 7.35783L32.9074 6.37867H30.115L28.338 11.1657C27.5946 11.9091 26.8874 12.5619 26.4704 12.7251C26.017 12.9064 25.7269 12.9427 25.4912 12.9246L27.9391 6.3968H25.1466L23.4603 10.8937C23.279 11.347 23.007 12.1449 22.2999 13.1059C22.0097 13.4685 21.6834 13.7587 21.3389 13.8674C20.3597 14.1576 20.3959 13.6317 20.4322 13.5048L23.0977 6.3968H20.3234L19.9608 7.37597C19.6162 8.2463 18.3107 11.4739 17.4403 12.6707C16.7332 13.6317 16.2617 14.0669 15.8446 14.085C15.5001 14.1032 15.4457 13.5411 15.5364 13.1059L18.0387 6.3968H15.2462L14.1583 9.33429C13.7413 10.2953 13.2154 11.3289 12.7077 11.8366C11.7467 12.7795 10.84 12.7251 10.6043 12.6888C11.0033 11.9817 12.345 9.44306 12.6171 7.06771C13.2516 1.24715 10.5681 0.558104 8.79106 0.775695C7.52175 0.938887 6.66953 1.59166 6.08928 2.31697C5.07386 2.69775 3.56885 3.73131 1.93691 6.37867C-1.00057 11.1657 -0.782973 17.4577 3.87711 17.4577C6.4882 17.4577 8.41028 15.7351 9.62518 14.1032C11.112 14.3208 12.2725 13.7768 12.7077 13.5229V13.5411C12.7077 13.5411 12.2544 15.4268 14.1946 15.9708C15.1556 16.2428 16.2254 15.862 16.8782 15.4087C17.5491 14.9373 17.8392 14.4114 17.8392 14.4114C17.8392 14.4114 17.7304 15.9708 20.0151 15.9708C21.7921 15.9708 23.4059 14.6834 24.0406 14.1213C24.2582 14.1938 24.4032 14.2119 24.4032 14.2119V14.1938C24.6752 14.2482 25.056 14.2845 25.4912 14.2482C26.1439 14.1757 26.7967 13.9943 27.3951 13.7405L26.6336 15.8076H29.426L31.6563 9.76949C32.708 8.60901 33.5783 8.2463 34.0497 8.66336C34.6663 9.20739 32.019 12.9246 32.5992 14.5746C33.1794 16.2247 35.1559 16.4785 37.2049 15.046C38.2747 14.3026 38.9637 13.396 39.3989 12.707C39.8522 11.9997 39.3627 11.4014 38.7099 11.4014ZM7.03218 13.1784C6.25248 14.3026 5.29145 15.2455 4.31229 15.2092C1.24788 15.1005 3.27873 8.95351 4.67494 6.59626C4.67494 6.59626 4.58428 6.86825 4.9288 8.8991C5.38211 11.619 7.14098 13.0152 7.14098 13.0152L7.03218 13.1784ZM8.9361 9.57003C8.9361 9.57003 8.66408 10.2772 8.19268 11.2019C8.19268 11.2019 7.05032 10.0958 6.88712 7.37597C6.79646 5.88909 7.66679 3.07853 9.3713 3.74945C11.1483 4.43848 8.9361 9.57003 8.9361 9.57003Z" fill="#2A2B2D"/>
<path d="M49.0998 3.22363V8.42769H49.1361C49.2449 8.10133 49.4262 7.81117 49.6438 7.55729C49.8614 7.30347 50.1153 7.10402 50.3873 6.94082C50.6592 6.77763 50.9675 6.6507 51.2939 6.56003C51.6202 6.46937 51.9467 6.43311 52.273 6.43311C52.9621 6.43311 53.5605 6.56003 54.0682 6.81389C54.5759 7.06775 54.9929 7.41227 55.3375 7.86559C55.682 8.30079 55.9359 8.80847 56.099 9.3887C56.2622 9.96894 56.3528 10.5855 56.3528 11.2201C56.3528 11.8729 56.2622 12.4713 56.099 13.0515C55.9359 13.6318 55.682 14.1394 55.3375 14.5746C54.9929 15.0098 54.5759 15.3543 54.0682 15.6082C53.5605 15.8621 52.9621 15.989 52.273 15.989C51.5296 15.989 50.8768 15.8258 50.2966 15.4813C49.7163 15.1367 49.2993 14.6472 49.0454 14.0125H49.0091V15.7351H47.9938V3.22363H49.0998ZM55.0836 9.8239C54.9748 9.35242 54.7934 8.95351 54.5578 8.59087C54.322 8.22823 54.0138 7.93815 53.633 7.70241C53.2522 7.46666 52.7989 7.35787 52.273 7.35787C51.6928 7.35787 51.185 7.46666 50.7861 7.70241C50.3872 7.93815 50.0608 8.22823 49.807 8.59087C49.5532 8.95351 49.3718 9.37056 49.263 9.8239C49.1542 10.2954 49.0998 10.7486 49.0998 11.2201C49.0998 11.6916 49.1542 12.163 49.263 12.6163C49.3718 13.0878 49.5532 13.4867 49.807 13.8494C50.0608 14.212 50.3872 14.5021 50.7861 14.7378C51.185 14.9736 51.6928 15.0824 52.273 15.0824C52.7989 15.0824 53.2522 14.9736 53.633 14.7378C54.0138 14.5021 54.322 14.212 54.5578 13.8494C54.7934 13.4867 54.9748 13.0697 55.0836 12.6163C55.1924 12.1449 55.2468 11.6916 55.2468 11.2201C55.2468 10.7486 55.1924 10.2954 55.0836 9.8239Z" fill="#2A2B2D"/>
<path d="M57.7853 8.10134C57.9667 7.72049 58.2205 7.39414 58.5469 7.15841C58.8733 6.90456 59.2541 6.72323 59.6711 6.61443C60.1063 6.48751 60.5778 6.43311 61.1217 6.43311C61.5206 6.43311 61.9196 6.46938 62.3185 6.5419C62.7174 6.61443 63.08 6.7595 63.3883 6.97709C63.7147 7.19468 63.9686 7.4848 64.168 7.86561C64.3675 8.24638 64.4581 8.73593 64.4581 9.35244V14.1757C64.4581 14.6291 64.6757 14.8467 65.1109 14.8467C65.2378 14.8467 65.3648 14.8285 65.4554 14.7741V15.6989C65.3285 15.717 65.2197 15.7351 65.1109 15.7533C65.0203 15.7714 64.8933 15.7714 64.7301 15.7714C64.4581 15.7714 64.2224 15.7351 64.0592 15.6626C63.896 15.5901 63.751 15.4813 63.6603 15.3362C63.5697 15.1912 63.4971 15.028 63.479 14.8285C63.4427 14.6291 63.4428 14.4296 63.4428 14.1939H63.4065C63.207 14.484 63.0076 14.756 62.8081 14.9736C62.6086 15.2093 62.3729 15.3906 62.119 15.5538C61.8651 15.6989 61.5751 15.8258 61.2487 15.8983C60.9223 15.9709 60.5415 16.0253 60.0881 16.0253C59.6712 16.0253 59.2722 15.9709 58.9095 15.8802C58.5469 15.7714 58.2205 15.6264 57.9485 15.4088C57.6766 15.1912 57.459 14.9192 57.2958 14.5747C57.1325 14.2483 57.0601 13.8494 57.0601 13.396C57.0601 12.7614 57.2051 12.2718 57.4771 11.9091C57.7491 11.5465 58.1298 11.2746 58.5832 11.0932C59.0365 10.9118 59.5623 10.7668 60.1426 10.6942C60.7228 10.6218 61.3212 10.5492 61.9014 10.4767C62.1372 10.4586 62.3366 10.4223 62.5179 10.386C62.6993 10.3497 62.8444 10.2953 62.9531 10.2047C63.0619 10.114 63.1526 10.0052 63.2252 9.84206C63.2976 9.69694 63.3158 9.49748 63.3158 9.24368C63.3158 8.8629 63.2614 8.55461 63.1345 8.31887C63.0076 8.0832 62.8444 7.88375 62.6268 7.73863C62.4092 7.59359 62.1553 7.50293 61.8651 7.44853C61.5751 7.39414 61.2668 7.37601 60.9404 7.37601C60.2333 7.37601 59.6711 7.53917 59.2178 7.88375C58.7645 8.22825 58.5288 8.75407 58.5106 9.49748H57.4046C57.4771 8.95352 57.5859 8.48212 57.7853 8.10134ZM63.3158 10.8031C63.2432 10.93 63.1163 11.0207 62.9169 11.0932C62.7174 11.1657 62.5361 11.202 62.391 11.2201C61.9196 11.2926 61.4482 11.3833 60.9404 11.4377C60.4327 11.5102 59.9975 11.6009 59.5805 11.7278C59.1634 11.8548 58.8371 12.0361 58.565 12.2899C58.293 12.5256 58.1661 12.8702 58.1661 13.3235C58.1661 13.6136 58.2205 13.8494 58.3293 14.0669C58.4381 14.2845 58.5832 14.4658 58.7826 14.6291C58.9639 14.7923 59.1816 14.901 59.4354 14.9917C59.6892 15.0823 59.9431 15.1186 60.197 15.1186C60.614 15.1186 61.0311 15.0642 61.4119 14.9192C61.7927 14.7923 62.1372 14.5928 62.4273 14.3571C62.7174 14.1032 62.935 13.8131 63.1163 13.4685C63.2976 13.124 63.3702 12.7251 63.3702 12.2718V10.8394C63.3521 10.8031 63.3158 10.8031 63.3158 10.8031Z" fill="#2A2B2D"/>
<path d="M71.6569 7.93806C71.2399 7.55728 70.6778 7.35782 69.9343 7.35782C69.4085 7.35782 68.937 7.46662 68.5381 7.68418C68.1392 7.90178 67.8128 8.19193 67.5408 8.55457C67.2688 8.91721 67.0875 9.33427 66.9424 9.78761C66.8155 10.259 66.7429 10.7305 66.7429 11.202C66.7429 11.6734 66.8155 12.1448 66.9424 12.6163C67.0694 13.0877 67.2688 13.4866 67.5408 13.8493C67.8128 14.2119 68.1392 14.5021 68.5381 14.7197C68.937 14.9373 69.4085 15.046 69.9343 15.046C70.2789 15.046 70.5871 14.9917 70.8953 14.8466C71.2036 14.7197 71.4756 14.5383 71.7113 14.3026C71.947 14.0669 72.1465 13.7949 72.2915 13.4866C72.4366 13.1784 72.5454 12.8158 72.5635 12.4531H73.6696C73.5246 13.5592 73.1075 14.4114 72.4548 15.0279C71.802 15.6444 70.9497 15.9527 69.9162 15.9527C69.2272 15.9527 68.6106 15.8257 68.0848 15.5719C67.5589 15.318 67.1056 14.9735 66.7429 14.5383C66.3803 14.1031 66.1084 13.5955 65.927 13.0152C65.7456 12.4349 65.655 11.8185 65.655 11.1657C65.655 10.5129 65.7456 9.89637 65.927 9.31613C66.1084 8.73589 66.3803 8.22821 66.7429 7.79301C67.1056 7.35782 67.5589 7.0133 68.0848 6.75944C68.6106 6.50559 69.2272 6.37866 69.9162 6.37866C70.8953 6.37866 71.7113 6.63252 72.3822 7.15836C73.0532 7.68418 73.4521 8.44581 73.579 9.49745H72.4728C72.3459 8.86279 72.0739 8.33697 71.6569 7.93806Z" fill="#2A2B2D"/>
<path d="M75.8631 3.22363V11.0932L80.8862 6.7051H82.3552L78.4929 10.0596L82.6269 15.7714H81.231L77.6584 10.8212L75.8631 12.3081V15.7533H74.7576V3.22363H75.8631Z" fill="#2A2B2D"/>
<path d="M89.4446 15.7714V14.1395H89.4088C89.1184 14.756 88.6832 15.2093 88.1398 15.5357C87.5956 15.8621 86.9611 16.0253 86.29 16.0253C85.71 16.0253 85.2203 15.9528 84.8209 15.7896C84.4223 15.6264 84.0961 15.4088 83.8423 15.1187C83.5885 14.8286 83.4071 14.4659 83.2981 14.0489C83.1891 13.6318 83.1167 13.1422 83.1167 12.6164V6.68701H84.223V12.5982C84.2409 13.4142 84.4402 14.0307 84.7851 14.4659C85.1479 14.883 85.7637 15.1005 86.6341 15.1005C87.1059 15.1005 87.5232 14.9918 87.8673 14.7923C88.2122 14.5928 88.4839 14.3208 88.7019 13.9763C88.9191 13.6318 89.0826 13.251 89.1908 12.8158C89.2998 12.3806 89.3543 11.9273 89.3543 11.474V6.68701H90.4606V15.7533H89.4446V15.7714Z" fill="#2A2B2D"/>
<path d="M93.0717 6.6869V8.40952H93.1076C93.3614 7.77487 93.7787 7.28528 94.3587 6.94077C94.9394 6.59624 95.5919 6.41492 96.3353 6.41492C97.0243 6.41492 97.623 6.54185 98.1306 6.7957C98.6382 7.04956 99.0734 7.39408 99.3996 7.84743C99.7445 8.28255 99.9983 8.7903 100.161 9.37054C100.325 9.95078 100.415 10.5673 100.415 11.202C100.415 11.8547 100.325 12.453 100.161 13.0333C99.9983 13.6136 99.7445 14.1213 99.3996 14.5565C99.0555 14.9917 98.6382 15.3362 98.1306 15.5901C97.623 15.8439 97.0243 15.9708 96.3353 15.9708C96.0091 15.9708 95.6822 15.9346 95.356 15.8439C95.0298 15.7532 94.7215 15.6444 94.4497 15.4812C94.1773 15.318 93.9235 15.1186 93.7062 14.8647C93.4883 14.6108 93.3255 14.3389 93.1986 13.9944H93.1621V19.0533H92.0558V6.6869H93.0717ZM99.1458 9.82388C99.0369 9.3524 98.8555 8.95348 98.6203 8.59084C98.3844 8.2282 98.0761 7.93805 97.6954 7.70231C97.3147 7.46661 96.8609 7.35781 96.3353 7.35781C95.7188 7.35781 95.2112 7.46661 94.8125 7.66603C94.4132 7.86549 94.069 8.15565 93.8331 8.51829C93.5793 8.86279 93.4159 9.27984 93.3069 9.75132C93.1986 10.2228 93.1621 10.7123 93.1621 11.2201C93.1621 11.6915 93.2166 12.163 93.3255 12.6163C93.4338 13.0877 93.6152 13.4866 93.869 13.8493C94.1228 14.212 94.4497 14.5021 94.8484 14.7378C95.2477 14.9735 95.7553 15.0823 96.3353 15.0823C96.8609 15.0823 97.3147 14.9735 97.6954 14.7378C98.0761 14.5021 98.3844 14.212 98.6203 13.8493C98.8555 13.4866 99.0369 13.0696 99.1458 12.6163C99.2548 12.1448 99.3093 11.6915 99.3093 11.2201C99.3093 10.7668 99.2548 10.2953 99.1458 9.82388Z" fill="#2A2B2D"/>
<path d="M41.2847 9.76959C42.8078 9.76959 43.0072 8.7723 43.0072 7.9019C43.0072 7.19476 42.9166 6.48759 42.8441 5.78042C42.7534 5.07325 42.6809 4.3842 42.6809 3.67703C42.6809 1.33793 43.9683 0.358765 45.7815 0.358765H46.2349V1.75498H45.8541C44.5848 1.75498 44.1678 2.57095 44.1678 3.93089C44.1678 4.51113 44.2403 5.12764 44.3128 5.72602C44.4035 6.36066 44.4579 6.95904 44.4579 7.6481C44.476 9.26191 43.8776 10.0778 42.9166 10.3861V10.4405C43.8776 10.7125 44.476 11.5829 44.4579 13.1967C44.4579 13.8857 44.3853 14.5203 44.3128 15.1187C44.2221 15.7534 44.1678 16.3336 44.1678 16.9501C44.1678 18.3645 44.6573 19.1442 45.8541 19.1442H46.2349V20.5404H45.7815C44.0045 20.5404 42.6809 19.6337 42.6809 17.077C42.6809 16.388 42.7716 15.6808 42.8441 15.0099C42.9166 14.339 43.0072 13.6499 43.0072 12.9609C43.0072 12.1812 42.7896 11.0932 41.2847 11.0932V9.76959Z" fill="#2A2B2D"/>
<path d="M106 11.0571C104.477 11.0571 104.277 12.145 104.277 12.9247C104.277 13.6137 104.368 14.2846 104.441 14.9737C104.531 15.6627 104.604 16.3699 104.604 17.0408C104.604 19.5974 103.262 20.5041 101.503 20.5041H101.05V19.1079H101.412C102.609 19.0898 103.117 18.3282 103.117 16.9139C103.117 16.3155 103.026 15.7171 102.971 15.0824C102.881 14.4841 102.809 13.8494 102.809 13.1604C102.809 11.5466 103.407 10.6762 104.35 10.4043V10.3498C103.407 10.0416 102.809 9.22564 102.809 7.61183C102.809 6.92278 102.899 6.32441 102.971 5.68976C103.026 5.09139 103.117 4.47488 103.117 3.89464C103.117 2.53469 102.664 1.73686 101.431 1.71872H101.05V0.32251H101.467C103.28 0.32251 104.585 1.30167 104.585 3.64078C104.585 4.34795 104.495 5.03699 104.423 5.74416C104.332 6.45133 104.259 7.1585 104.259 7.86571C104.259 8.75417 104.477 9.73332 105.982 9.73332V11.0571H106Z" fill="#2A2B2D"/>
</g>
<defs>
<clipPath id="clip0_255_7542">
<rect width="106" height="20.9901" fill="white"/>
</clipPath>
</defs>
</svg>
