<svg width="130" height="48" viewBox="0 0 130 48" fill="none" xmlns="http://www.w3.org/2000/svg">
<path d="M0 24C0 12.6863 0 7.02944 3.51472 3.51472C7.02944 0 12.6863 0 24 0H106C117.314 0 122.971 0 126.485 3.51472C130 7.02944 130 12.6863 130 24V24C130 35.3137 130 40.9706 126.485 44.4853C122.971 48 117.314 48 106 48H24C12.6863 48 7.02944 48 3.51472 44.4853C0 40.9706 0 35.3137 0 24V24Z" fill="url(#paint0_linear_390_4328)"/>
<path d="M25.1682 31L26.4662 27.282H32.4722L33.7702 31H36.7402L30.9322 14.918H28.0502L22.2422 31H25.1682ZM29.1282 19.714C29.2822 19.274 29.4142 18.79 29.4802 18.482C29.5242 18.812 29.6782 19.296 29.8102 19.714L31.6582 24.906H27.3022L29.1282 19.714Z" fill="white"/>
<path d="M41.0448 31V25.148C41.0448 23.388 42.0568 22.244 43.7068 22.244C45.0928 22.244 45.9948 23.124 45.9948 24.95V31H48.6788V24.312C48.6788 21.496 47.2708 19.802 44.5428 19.802C43.0688 19.802 41.7488 20.44 41.0668 21.54L40.8468 20.132H38.3608V31H41.0448Z" fill="white"/>
<path d="M50.351 27.7C50.351 29.834 52.067 31.286 54.773 31.286C57.457 31.286 59.327 29.922 59.327 27.722C59.327 26.05 58.403 25.214 56.577 24.796L54.619 24.334C53.695 24.114 53.211 23.718 53.211 23.102C53.211 22.288 53.827 21.804 54.883 21.804C55.917 21.804 56.533 22.398 56.555 23.322H59.107C59.085 21.21 57.435 19.802 54.993 19.802C52.485 19.802 50.681 21.078 50.681 23.212C50.681 24.95 51.627 25.874 53.585 26.314L55.543 26.776C56.511 26.996 56.797 27.392 56.797 27.942C56.797 28.734 56.115 29.24 54.861 29.24C53.629 29.24 52.925 28.646 52.903 27.7H50.351Z" fill="white"/>
<path d="M63.4678 31H66.0858L67.5818 26.336C68.1318 24.554 68.3298 23.784 68.4398 23.278C68.5278 23.828 68.7698 24.862 69.2098 26.292L70.7058 31H73.2138L76.9758 20.132H74.1378L72.6858 24.796C72.4878 25.478 72.1358 26.776 71.9598 27.59C71.8278 26.864 71.3878 25.236 71.2558 24.796L69.8038 20.132H67.0758L65.5798 24.796C65.2278 25.874 65.0298 26.556 64.8318 27.612C64.6338 26.6 64.4138 25.654 64.1718 24.796L62.7418 20.132H59.9478L63.4678 31Z" fill="white"/>
<path d="M82.9259 31.286C85.7639 31.286 87.7439 29.856 88.2059 27.48H85.7199C85.4119 28.514 84.4439 29.086 82.9699 29.086C81.1879 29.086 80.1759 28.118 79.9779 26.204L88.1619 26.182V25.368C88.1619 21.98 86.0939 19.802 82.8379 19.802C79.6479 19.802 77.4259 22.156 77.4259 25.566C77.4259 28.932 79.6919 31.286 82.9259 31.286ZM82.8599 22.002C84.4659 22.002 85.4999 22.992 85.4999 24.488H80.0439C80.3079 22.86 81.2759 22.002 82.8599 22.002Z" fill="white"/>
<path d="M97.13 20.088C96.69 19.978 96.316 19.934 95.942 19.934C94.49 19.934 93.456 20.66 92.994 21.738L92.84 20.154H90.31V31H92.994V25.72C92.994 23.608 94.204 22.574 96.14 22.574H97.13V20.088Z" fill="white"/>
<path d="M98.1107 27.7C98.1107 29.834 99.8267 31.286 102.533 31.286C105.217 31.286 107.087 29.922 107.087 27.722C107.087 26.05 106.163 25.214 104.337 24.796L102.379 24.334C101.455 24.114 100.971 23.718 100.971 23.102C100.971 22.288 101.587 21.804 102.643 21.804C103.677 21.804 104.293 22.398 104.315 23.322H106.867C106.845 21.21 105.195 19.802 102.753 19.802C100.245 19.802 98.4407 21.078 98.4407 23.212C98.4407 24.95 99.3867 25.874 101.345 26.314L103.303 26.776C104.271 26.996 104.557 27.392 104.557 27.942C104.557 28.734 103.875 29.24 102.621 29.24C101.389 29.24 100.685 28.646 100.663 27.7H98.1107Z" fill="white"/>
<defs>
<linearGradient id="paint0_linear_390_4328" x1="65" y1="0" x2="69.8127" y2="38.172" gradientUnits="userSpaceOnUse">
<stop stop-color="#F7C96B"/>
<stop offset="1" stop-color="#FCA880"/>
</linearGradient>
</defs>
</svg>
