<svg width="25" height="25" viewBox="0 0 25 25" fill="none" xmlns="http://www.w3.org/2000/svg">
<mask id="mask0_413_4282" style="mask-type:alpha" maskUnits="userSpaceOnUse" x="0" y="0" width="25" height="25">
<rect x="0.205078" y="0.63916" width="24" height="24" fill="#D9D9D9"/>
</mask>
<g mask="url(#mask0_413_4282)">
<path d="M14.7051 18.6392C14.0051 18.6392 13.4134 18.3975 12.9301 17.9142C12.4467 17.4308 12.2051 16.8392 12.2051 16.1392C12.2051 15.4392 12.4467 14.8475 12.9301 14.3642C13.4134 13.8808 14.0051 13.6392 14.7051 13.6392C15.4051 13.6392 15.9967 13.8808 16.4801 14.3642C16.9634 14.8475 17.2051 15.4392 17.2051 16.1392C17.2051 16.8392 16.9634 17.4308 16.4801 17.9142C15.9967 18.3975 15.4051 18.6392 14.7051 18.6392ZM5.20508 22.6392C4.65508 22.6392 4.18408 22.4435 3.79208 22.0522C3.40074 21.6602 3.20508 21.1892 3.20508 20.6392V6.63916C3.20508 6.08916 3.40074 5.61849 3.79208 5.22716C4.18408 4.83516 4.65508 4.63916 5.20508 4.63916H6.20508V2.63916H8.20508V4.63916H16.2051V2.63916H18.2051V4.63916H19.2051C19.7551 4.63916 20.2261 4.83516 20.6181 5.22716C21.0094 5.61849 21.2051 6.08916 21.2051 6.63916V20.6392C21.2051 21.1892 21.0094 21.6602 20.6181 22.0522C20.2261 22.4435 19.7551 22.6392 19.2051 22.6392H5.20508ZM5.20508 20.6392H19.2051V10.6392H5.20508V20.6392ZM5.20508 8.63916H19.2051V6.63916H5.20508V8.63916Z" fill="#00AEEE"/>
</g>
</svg>
