<svg width="100" height="20" viewBox="0 0 100 20" fill="none" xmlns="http://www.w3.org/2000/svg">
<g clip-path="url(#clip0_804_4366)">
<path fill-rule="evenodd" clip-rule="evenodd" d="M17.3396 7.157L18.1112 6.3936L18.1133 6.3895C18.1133 6.3895 21.5354 9.7686 18.0928 13.6369L17.356 12.9369C17.0572 16.7745 13.9339 17.3189 13.0272 17.3946L13.6228 18.021C12.3211 19.1773 11.0787 19.558 9.9981 19.5539V14.8875C9.92445 14.8915 9.8528 14.8935 9.7791 14.8935H9.76685C7.12045 14.8874 4.97754 12.7405 4.97754 10.0941C4.97754 7.44765 7.12045 5.30065 9.76685 5.2945H9.7791C9.8528 5.2945 9.92645 5.29655 9.9981 5.30065V0.43973C11.0787 0.435636 12.3231 0.816325 13.6228 1.97066L12.9187 2.71157C13.6781 2.75865 17.0203 3.19255 17.3396 7.157V7.157ZM14.5745 9.8853L17.1718 7.32075H17.1697L13.7558 7.4067C14.2389 8.11895 14.5356 8.96835 14.5745 9.8853V9.8853ZM12.7448 6.3199L12.7652 2.87531L10.4217 5.33955C11.2916 5.45415 12.0878 5.80415 12.7448 6.3199ZM9.78115 8.0187C8.63295 8.0187 7.70375 8.9479 7.70375 10.0961C7.70375 11.2443 8.63295 12.1735 9.78115 12.1735C10.9293 12.1735 11.8585 11.2443 11.8585 10.0961C11.8585 8.9479 10.9293 8.0187 9.78115 8.0187V8.0187ZM12.7591 13.8621C12.1389 14.3512 11.396 14.693 10.5834 14.8301V14.8322L12.7796 17.1409L12.7591 13.8621ZM14.5766 10.2987C14.5397 11.187 14.2614 12.0118 13.805 12.7118H13.807L17.2045 12.7978L14.5766 10.2987Z" fill="#2A2B2D"/>
<path d="M3.51419 9.99781C3.51419 13.0147 5.741 15.5198 8.63915 15.9599V19.5171C3.79254 19.0524 0 14.9693 0 9.99986C0 5.03046 3.79254 0.947271 8.63915 0.482666V4.03575C5.741 4.47579 3.51419 6.98096 3.51419 9.99781V9.99781Z" fill="#2A2B2D"/>
<path d="M28.3674 6.53495V6.53905C26.509 6.55135 25.0067 8.0618 25.0067 9.92225C25.0067 11.7827 26.509 13.2932 28.3674 13.3055V13.3095H32.1743V14.8834H28.3674V14.8773C25.6207 14.865 23.396 12.6341 23.396 9.88335C23.396 7.1326 25.6187 4.90168 28.3674 4.8894H32.1743V6.53495H28.3674Z" fill="#2A2B2D"/>
<path fill-rule="evenodd" clip-rule="evenodd" d="M73.4049 4.90576C70.6459 4.90576 68.4089 7.14283 68.4089 9.90178C68.4089 12.6607 70.6459 14.8978 73.4049 14.8978C76.1639 14.8978 78.4009 12.6607 78.4009 9.90178C78.4009 7.14283 76.1639 4.90576 73.4049 4.90576ZM73.4049 13.2174C71.5734 13.2174 70.0894 11.7336 70.0894 9.90178C70.0894 8.06998 71.5734 6.58608 73.4049 6.58608C75.2369 6.58608 76.7209 8.06998 76.7209 9.90178C76.7209 11.7336 75.2369 13.2174 73.4049 13.2174Z" fill="#2A2B2D"/>
<path d="M35.3406 4.91809H37.1663V13.2031H42.3055V14.7484H35.3406V4.91809Z" fill="#2A2B2D"/>
<path d="M96.1525 11.2792V14.7484H94.3265V11.3079L90.4645 4.91809H92.417L95.297 9.70738L98.203 4.91809H100L96.1525 11.2792Z" fill="#2A2B2D"/>
<path d="M80.0649 6.46333H83.3214V14.7484H85.1469V6.46333H88.4054V4.91809H80.0649V6.46333Z" fill="#2A2B2D"/>
<path d="M48.2594 4.91809H50.0565L54.4935 14.7484H52.584L49.1435 6.74373L45.7173 14.7484H43.8364L48.2594 4.91809Z" fill="#2A2B2D"/>
<path d="M63.284 11.5186C64.6185 10.9987 65.376 9.90379 65.376 8.41584C65.376 6.24019 63.7755 4.92004 61.1905 4.92004H57.146V6.46734H61.1065C62.707 6.46529 63.536 7.18164 63.536 8.41784C63.536 9.65409 62.707 10.3847 61.1065 10.3847H57.146V14.7524H58.972V11.887H61.1905C61.3175 11.887 61.4445 11.887 61.569 11.8727L63.577 14.7524H65.542L63.28 11.5227L63.284 11.5186Z" fill="#2A2B2D"/>
</g>
<defs>
<clipPath id="clip0_804_4366">
<rect width="100" height="20" fill="white"/>
</clipPath>
</defs>
</svg>
