<svg width="124" height="28" viewBox="0 0 124 28" fill="none" xmlns="http://www.w3.org/2000/svg">
<path d="M3.74179 20.3838C3.29682 20.3848 2.85956 20.2676 2.47469 20.0443C2.08982 19.8209 1.77114 19.4994 1.55119 19.1126C1.3346 18.7285 1.22659 18.2928 1.23871 17.852C1.25083 17.4112 1.38264 16.982 1.62 16.6104L6.1312 9.52633C6.36209 9.1456 6.6899 8.83298 7.08115 8.62039C7.4724 8.40781 7.91306 8.30288 8.35813 8.31633C8.80286 8.32699 9.23677 8.45562 9.61546 8.68904C9.99415 8.92247 10.304 9.25232 10.5134 9.64484C10.9339 10.44 10.8813 11.3968 10.3777 12.1432L5.86932 19.2273C5.6407 19.5836 5.32584 19.8764 4.95393 20.0785C4.58202 20.2807 4.1651 20.3857 3.74179 20.3838V20.3838Z" fill="#2A2B2D"/>
<path d="M11.4798 20.3836C10.5699 20.3836 9.73266 19.8971 9.29301 19.1153C9.07691 18.7323 8.96914 18.2976 8.98127 17.858C8.99339 17.4184 9.12494 16.9904 9.36182 16.6198L13.8644 9.55195C14.0919 9.16586 14.4186 8.84767 14.8105 8.63037C15.2024 8.41307 15.6453 8.30458 16.0933 8.31614C17.0108 8.33622 17.8423 8.84946 18.2628 9.6523C18.6805 10.4551 18.6193 11.4176 18.1004 12.1621L13.5987 19.23C13.3708 19.5847 13.0572 19.8764 12.6869 20.078C12.3166 20.2796 11.9014 20.3847 11.4798 20.3836V20.3836Z" fill="#2A2B2D"/>
<path d="M19.0447 20.4429C20.3274 20.4429 21.3672 19.4249 21.3672 18.1691C21.3672 16.9134 20.3274 15.8954 19.0447 15.8954C17.762 15.8954 16.7222 16.9134 16.7222 18.1691C16.7222 19.4249 17.762 20.4429 19.0447 20.4429Z" fill="#2A2B2D"/>
<path d="M119.941 16.0273C120.642 16.0273 121.062 16.5262 121.062 17.3434V20.1438H122.015V17.2793C122.015 15.8897 121.36 15.084 120.129 15.084C119.647 15.084 118.883 15.2159 118.427 16.1018C118.321 15.8405 118.146 15.6128 117.921 15.4428C117.696 15.2728 117.429 15.167 117.149 15.1365C116.973 15.1042 116.793 15.0936 116.614 15.105C116.222 15.1365 115.524 15.3802 115.263 15.9327V15.1901H114.31V20.1438H115.263V17.4705C115.263 16.4306 115.944 16.0273 116.625 16.0273C117.264 16.0273 117.683 16.5157 117.683 17.3329V20.1438H118.631V17.4705C118.631 16.6428 119.128 16.0177 119.941 16.0273H119.941ZM110.809 19.3161C111.244 19.3256 111.665 19.1517 111.97 18.8363C112.276 18.5209 112.438 18.0917 112.422 17.6511C112.422 16.6533 111.688 16.0273 110.809 16.0273C109.928 16.0273 109.195 16.6533 109.195 17.6511C109.178 18.0908 109.34 18.519 109.644 18.8334C109.948 19.1488 110.367 19.3237 110.801 19.3161H110.809ZM110.809 20.2451C109.415 20.2451 108.252 19.2157 108.252 17.6454C108.252 16.0751 109.415 15.0782 110.809 15.0782C112.202 15.0782 113.375 16.0751 113.375 17.6454C113.375 19.2157 112.195 20.2499 110.802 20.2499L110.809 20.2451ZM103.344 17.6454L103.334 17.6511C103.334 16.0808 104.528 15.084 105.931 15.0782C106.284 15.0714 106.634 15.1387 106.959 15.2756C107.283 15.4126 107.576 15.6163 107.817 15.8734L107.094 16.4889C106.941 16.3382 106.759 16.2194 106.56 16.1394C106.36 16.0593 106.146 16.0196 105.931 16.0225C105.052 16.0225 104.287 16.6486 104.287 17.6454C104.287 18.3192 104.688 18.9261 105.302 19.1842C105.917 19.4422 106.624 19.2989 107.094 18.8229L107.828 19.4384C107.586 19.6982 107.292 19.9043 106.965 20.0432C106.638 20.1822 106.286 20.251 105.931 20.2451C104.539 20.2451 103.344 19.2157 103.344 17.6454V17.6454ZM100.292 19.1928C100.291 19.1062 100.307 19.0202 100.34 18.9398C100.372 18.8594 100.419 18.7862 100.48 18.7242C100.541 18.6623 100.613 18.6128 100.692 18.5788C100.772 18.5447 100.858 18.5267 100.944 18.5257C101.031 18.5267 101.116 18.5447 101.196 18.5788C101.276 18.6128 101.348 18.6623 101.408 18.7242C101.469 18.7862 101.516 18.8594 101.549 18.9398C101.581 19.0202 101.597 19.1062 101.596 19.1928C101.587 19.3605 101.515 19.5187 101.394 19.635C101.273 19.7513 101.112 19.8171 100.944 19.8188C100.776 19.8171 100.615 19.7513 100.494 19.635C100.373 19.5187 100.301 19.3605 100.292 19.1928V19.1928Z" fill="#2A2B2D"/>
<path fill-rule="evenodd" clip-rule="evenodd" d="M102.9 8.89246H99.5056L97.1267 15.0256L94.7603 8.89246H91.3663L95.4924 18.5839L92.9261 24.9913H96.2952L102.9 8.89246ZM82.2589 14.283C82.2589 15.8313 83.6123 16.8502 84.9417 16.8502C86.2483 16.8502 87.5318 15.9021 87.5318 14.282C87.5318 12.662 86.2482 11.7129 84.9417 11.7129C83.6123 11.7129 82.2589 12.7328 82.2589 14.2821V14.283ZM87.5318 19.6945V18.4683C86.8437 19.5101 85.238 19.9038 84.4142 19.9038C81.6864 19.9038 78.9577 17.7534 78.9577 14.282C78.9577 10.8117 81.6855 8.6612 84.4142 8.6612C85.1013 8.6612 86.707 8.8906 87.5318 10.0949V8.89631H90.6954V19.6964L87.5318 19.6955V19.6945ZM78.0574 19.6945H74.8937V18.3526C74.3652 19.3466 73.0835 19.9258 71.7531 19.9258C69.0015 19.9258 66.5709 17.7285 66.5709 14.326C66.5709 10.8594 69.0014 8.65926 71.7531 8.65926C73.0816 8.65926 74.3671 9.21361 74.8937 10.2085V3.00879H78.0573L78.0574 19.6945ZM74.825 14.2581C74.825 12.6391 73.656 11.69 72.3495 11.69C70.9962 11.69 69.8722 12.7079 69.8722 14.2581C69.8722 15.8581 70.9962 16.8712 72.3486 16.8712C73.6799 16.8731 74.825 15.8084 74.825 14.2581ZM58.749 13.979C58.749 12.337 59.5977 11.7817 60.7207 11.7817C61.7979 11.7817 62.5778 12.4986 62.5778 13.9322V19.6926H65.7643V13.2393C65.7643 10.1636 64.2504 8.65926 61.8428 8.65926C60.5822 8.65926 59.3215 9.37607 58.7481 10.4637V8.89246H55.5635V19.6926H58.749V13.979ZM49.093 19.878C46.067 19.878 43.5429 17.6578 43.5429 14.2572C43.5429 10.8546 46.0641 8.65639 49.093 8.65639C52.1218 8.65639 54.6651 10.8546 54.6651 14.2572C54.6651 17.6597 52.1189 19.879 49.093 19.879V19.878ZM49.093 16.7336C50.4215 16.7336 51.5234 15.7606 51.5234 14.2581C51.5234 12.8006 50.4224 11.8056 49.093 11.8056C48.7728 11.8006 48.4551 11.8608 48.159 11.9826C47.8629 12.1044 47.5947 12.2851 47.3707 12.5139C47.1454 12.7438 46.9686 13.0168 46.8509 13.3164C46.7332 13.616 46.6769 13.9363 46.6854 14.2581C46.6864 15.7625 47.7864 16.7336 49.093 16.7336ZM37.8302 11.7827C38.7697 11.7827 39.5955 12.5234 39.5955 13.9331V19.6945H42.7591V13.5604C42.7591 10.2993 41.1735 8.65735 38.6321 8.65735C37.8771 8.65735 36.4549 8.88674 35.4227 10.5765C34.8263 9.32735 33.6803 8.67933 31.9867 8.67933C31.3987 8.67634 30.8223 8.84276 30.3264 9.15869C29.8304 9.47462 29.436 9.9267 29.1902 10.4609V8.89341H26.0017V19.6935H29.1873V13.979C29.1873 12.337 30.0819 11.7817 31.0443 11.7817C31.9619 11.7817 32.7857 12.4986 32.8096 13.8634V19.6935H35.9961V13.979C35.9961 12.4087 36.8219 11.7836 37.8302 11.7836V11.7827Z" fill="#2A2B2D"/>
</svg>
